<svg xmlns="http://www.w3.org/2000/svg" width="31.537" height="32.5" viewBox="0 0 31.537 32.5">
  <g id="amazon-icon-1" transform="translate(-4.489 -0.438)">
    <path id="Path_37" data-name="Path 37" d="M32.151,192.82c-13.414,6.384-21.739,1.043-27.068-2.2-.33-.2-.89.048-.4.606,1.775,2.153,7.594,7.341,15.188,7.341s12.121-4.147,12.687-4.87.165-1.113-.4-.876Zm3.767-2.081c-.36-.469-2.19-.557-3.342-.415s-2.885.842-2.735,1.266c.077.159.235.087,1.027.016s3.021-.36,3.485.246-.71,3.519-.925,3.988.079.59.469.278a6.084,6.084,0,0,0,1.547-2.266c.464-1.151.747-2.756.473-3.113Z" transform="translate(0 -165.628)" fill="#f90"/>
    <path id="Path_38" data-name="Path 38" d="M64.023,14.165a8.41,8.41,0,0,1-.8,4.56,3.486,3.486,0,0,1-2.975,1.953c-1.651,0-2.612-1.258-2.612-3.114,0-3.665,3.284-4.33,6.392-4.33Zm4.336,10.48a.9.9,0,0,1-1.016.1,10.584,10.584,0,0,1-2.467-2.866c-2.358,2.407-4.027,3.126-7.087,3.126-3.616,0-6.434-2.231-6.434-6.7a7.306,7.306,0,0,1,4.584-7.027c2.334-1.028,5.594-1.21,8.085-1.494V9.231a5.533,5.533,0,0,0-.52-3.114A2.877,2.877,0,0,0,61.09,5,3.277,3.277,0,0,0,57.631,7.58a.9.9,0,0,1-.744.786l-4.173-.447a.762.762,0,0,1-.641-.9C53.035,1.962,57.6.438,61.689.438c2.092,0,4.826.556,6.477,2.141,2.092,1.953,1.893,4.56,1.893,7.4v6.7a5.881,5.881,0,0,0,1.621,3.985.808.808,0,0,1-.012,1.143c-.877.732-2.437,2.092-3.3,2.854l-.012-.012" transform="translate(-40.891)" fill-rule="evenodd"/>
    <path id="Path_39" data-name="Path 39" d="M32.151,192.82c-13.414,6.384-21.739,1.043-27.068-2.2-.33-.2-.89.048-.4.606,1.775,2.153,7.594,7.341,15.188,7.341s12.121-4.147,12.687-4.87.165-1.113-.4-.876Zm3.767-2.081c-.36-.469-2.19-.557-3.342-.415s-2.885.842-2.735,1.266c.077.159.235.087,1.027.016s3.021-.36,3.485.246-.71,3.519-.925,3.988.079.59.469.278a6.084,6.084,0,0,0,1.547-2.266c.464-1.151.747-2.756.473-3.113Z" transform="translate(0 -165.628)" fill="#f90"/>
    <path id="Path_40" data-name="Path 40" d="M64.023,14.165a8.41,8.41,0,0,1-.8,4.56,3.486,3.486,0,0,1-2.975,1.953c-1.651,0-2.612-1.258-2.612-3.114,0-3.665,3.284-4.33,6.392-4.33Zm4.336,10.48a.9.9,0,0,1-1.016.1,10.584,10.584,0,0,1-2.467-2.866c-2.358,2.407-4.027,3.126-7.087,3.126-3.616,0-6.434-2.231-6.434-6.7a7.306,7.306,0,0,1,4.584-7.027c2.334-1.028,5.594-1.21,8.085-1.494V9.231a5.533,5.533,0,0,0-.52-3.114A2.877,2.877,0,0,0,61.09,5,3.277,3.277,0,0,0,57.631,7.58a.9.9,0,0,1-.744.786l-4.173-.447a.762.762,0,0,1-.641-.9C53.035,1.962,57.6.438,61.689.438c2.092,0,4.826.556,6.477,2.141,2.092,1.953,1.893,4.56,1.893,7.4v6.7a5.881,5.881,0,0,0,1.621,3.985.808.808,0,0,1-.012,1.143c-.877.732-2.437,2.092-3.3,2.854l-.012-.012" transform="translate(-40.891)" fill-rule="evenodd"/>
  </g>
</svg>
