<svg id="Group_8" data-name="Group 8" xmlns="http://www.w3.org/2000/svg" width="32.594" height="32.594" viewBox="0 0 32.594 32.594">
  <defs>
    <style>
      .cls-1, .cls-2 {
        fill: none;
      }

      .cls-2 {
        stroke: #000;
        stroke-linecap: round;
        stroke-linejoin: round;
        stroke-width: 2px;
      }
    </style>
  </defs>
  <path id="Path_14" data-name="Path 14" class="cls-1" d="M0,0H32.594V32.594H0Z"/>
  <path id="Path_15" data-name="Path 15" class="cls-2" d="M12.148,5.716a2.716,2.716,0,0,1,5.432,0,9.506,9.506,0,0,1,5.432,8.148v4.074a5.432,5.432,0,0,0,2.716,4.074H4a5.432,5.432,0,0,0,2.716-4.074V13.865a9.506,9.506,0,0,1,5.432-8.148" transform="translate(1.432 1.074)"/>
  <path id="Path_16" data-name="Path 16" class="cls-2" d="M9,17v1.358a4.074,4.074,0,1,0,8.148,0V17" transform="translate(3.223 6.087)"/>
</svg>
