<svg id="Group_5" data-name="Group 5" xmlns="http://www.w3.org/2000/svg" width="30.103" height="30.103" viewBox="0 0 30.103 30.103">
  <defs>
    <style>
      .cls-1, .cls-2 {
        fill: none;
      }

      .cls-2 {
        stroke: #262e80;
        stroke-linecap: round;
        stroke-linejoin: round;
        stroke-width: 2px;
      }
    </style>
  </defs>
  <path id="Path_9" data-name="Path 9" class="cls-1" d="M0,0H30.1V30.1H0Z"/>
  <path id="Path_10" data-name="Path 10" class="cls-2" d="M12.188,4.652a2.162,2.162,0,0,1,4.2,0,2.162,2.162,0,0,0,3.227,1.337A2.163,2.163,0,0,1,22.59,8.962a2.162,2.162,0,0,0,1.336,3.226,2.162,2.162,0,0,1,0,4.2,2.162,2.162,0,0,0-1.337,3.227,2.163,2.163,0,0,1-2.973,2.973,2.162,2.162,0,0,0-3.226,1.336,2.162,2.162,0,0,1-4.2,0A2.162,2.162,0,0,0,8.96,22.588a2.163,2.163,0,0,1-2.973-2.973A2.162,2.162,0,0,0,4.652,16.39a2.162,2.162,0,0,1,0-4.2A2.162,2.162,0,0,0,5.989,8.96,2.163,2.163,0,0,1,8.962,5.988a2.161,2.161,0,0,0,3.226-1.336Z" transform="translate(0.763 0.763)"/>
  <circle id="Ellipse_2" data-name="Ellipse 2" class="cls-2" cx="4" cy="4" r="4" transform="translate(11 11.226)"/>
</svg>
